# xmcd
#
# Track frame offsets: 
#        150
#        14835
#        33877
#        48435
#        64900
#        81927
#        98817
#        112475
#        130827
#        143610
#
# Disc length: 2076 seconds
#
# Revision: 3
# Processed by: cddbd v1.5.1PL0 Copyright (c) Steve Scherf et al.
# Submitted via: ExactAudioCopy v0.90b4
#
DISCID=8d081a0a
DTITLE=Skip Ewing - The Will To Love
DYEAR=1989
DGENRE=Country
TTITLE0=The Will To Love
TTITLE1=Please Don't Leave Me Now
TTITLE2=If A Man Could Live On Love Alone
TTITLE3=Karen
TTITLE4=The Door
TTITLE5=It Wasn't His Child
TTITLE6=It's You Again
TTITLE7=Age Doesn't Matter At All
TTITLE8=Ain't That The Way It Always Ends
TTITLE9=She's Makin' Plans
EXTD=more info
EXTT0=
EXTT1=
EXTT2=
EXTT3=
EXTT4=
EXTT5=
EXTT6=
EXTT7=
EXTT8=
EXTT9=
PLAYORDER=
